<?xml version="1.0" encoding="utf-8"?>
<!-- Generator: Adobe Illustrator 24.1.1, SVG Export Plug-In . SVG Version: 6.00 Build 0)  -->
<svg version="1.1" id="Layer_1" xmlns="http://www.w3.org/2000/svg" xmlns:xlink="http://www.w3.org/1999/xlink" x="0px" y="0px"
	 viewBox="0 0 1080 1080" style="enable-background:new 0 0 1080 1080;" xml:space="preserve">
<g id="XMLID_48_">
	<path id="XMLID_36_" d="M768.2,608.8c-7.4,10.9-15.1,21.5-24.7,30.7c-3.9,3.7-7.9,7.1-13.2,8.7c-4.2,1.2-7.6,0-10.1-3.4
		c-2.4-3.2-4-6.9-4.3-11.3c1.5-0.7,2.9-1.4,4.4-2.2c11.3-5.6,20.8-13.2,27.5-24c2.5-4,4.4-8.2,4.8-13c0.5-5.3-1.5-9.5-6-11.6
		c-5.7-2.7-11.6-3.2-17.4-0.4c-16.4,8.1-27.2,21-32.4,38.6c-0.5,1.7-1,3.6-2.1,5c-5.8,7-11.8,14-17.9,20.8c-2.2,2.4-5,4.4-7.9,6.1
		c-4.6,2.7-7.6,1.3-9-3.8c-1.4-5.2-1.5-10.5,0-15.8c3-10.7,6-21.5,9.1-32.2c0.4-1.2,0.9-2.4,1.5-3.9h17.3c0.6-2.8,1.1-5.4,1.8-8.5
		c-6,0.3-11.4,0.6-17.3,0.9c2.8-10.1,5.4-19.6,8-29.3h-14.4c-0.4,1.1-0.6,1.9-0.8,2.7c-5.6,19.9-11.3,39.7-16.9,59.6
		c-1.3,4.5-1.9,9.4-4.2,13.3c-4.6,7.5-10.1,14.5-15.4,21.5c-1.1,1.4-3,2.1-5.4,3.8c0-4.3-0.4-7.4,0.1-10.5c2-13.2,4.3-26.3,6.4-39.4
		c0.8-5.2,1.6-10.4,2.5-16.1c-5.4,1.4-10,2.5-14.5,3.7c-0.4,2-0.8,3.6-1.2,5.5c-10.3-5.5-18.8-1.5-26.9,4.6
		c-6,4.5-10.1,10.4-14.2,16.6c-5.9,9.1-11.8,18.2-18.3,26.8c-5,6.6-10.9,12.6-16.9,18.3c-2.9,2.7-7,4.3-10.8,6
		c-2.8,1.2-5.7,0-7.8-2.1c-3.5-3.5-5.3-7.9-5.5-13c9.6-4,17.9-9.5,24.8-16.9c5.5-5.9,10.1-12.4,11.6-20.6c1.3-7.1-1.7-12.3-8.5-14.3
		c-5-1.4-10.1-1.5-15.1,0.9c-11,5.3-19.3,13.5-25.7,23.8c-1.4,2.3-2.9,4.5-4.6,6.5c-9,10-18,20.2-27.3,29.9
		c-4.2,4.4-9.1,8.2-13.9,12.1c-2.1,1.7-4.8,2.3-7.4,0.9c-2.9-3.9-1.7-8-0.2-11.6c3.2-8,6.9-15.8,10.8-23.5c3.6-7.2,8.2-13.7,15.3-18
		c0.7-0.4,1.3-1,2-1.5c2.9-2.6,3.8-5.9,3.1-9.5c-0.6-3.2-3.4-4.5-6.2-5.1c-3.2-0.7-6.6-1.3-9.9-1.3c-4.7-0.1-8.6-2-12.1-4.1
		c-0.8-3.7-1.1-7-2.2-10.1c-1.6-4.6-5.2-6.3-9.9-5.2c-5.3,1.2-9.3,4.5-12.2,8.9c-3.7,5.5-3,10,1.8,14.7c0.6,0.5,1.1,1.2,1.6,1.8
		c-2,4.7-3.8,9.1-5.8,13.5c-8.4,18.4-18.5,35.8-32.1,50.9c-5.3,5.8-11,11.2-18.3,14.4c-8.5,3.7-14,0.9-15.8-8.1
		c-1.3-6.5-0.5-13,0.8-19.3c4.2-21.2,13.9-39.8,27.3-56.5c2.8-3.5,6.1-6.6,9.4-9.7c2.2-2,4.7-3.8,8.4-3.7c5,5.2,0.4,11.1,0.7,16.7
		c3.9-3.5,6.2-6.7,7.8-10.8c3.5-9.2-1.1-15.7-11-15.3c-1.3,0-2.6,0.3-4,0.5c-7,1.4-13.1,4.8-18.8,9c-18.6,13.9-32,31.9-41.5,52.9
		c-5.4,12-8.6,24.5-7.9,37.8c0.8,14.9,13.8,24.9,28.3,21.9c9.4-1.9,17.3-7,24.4-13.1c23.9-20.6,40.5-46.2,51.2-75.7
		c0.5-1.4,1-2.7,1.5-3.9c5.9,0,11.3,0.1,16.8,0c2.8,0,5.6-0.6,8.5,2.2c-0.9,1.7-1.6,3.7-2.7,5.4c-6.9,10.8-14.2,21.4-20.9,32.3
		c-4.6,7.5-7.4,15.7-6.5,24.7c1,10.6,8.8,15.4,18.4,10.8c4.2-2,8.1-5.2,11.4-8.6c10.8-11.3,21.3-23,31.9-34.5
		c0.8-0.9,1.7-1.7,2.4-2.3c0,3.9-0.2,7.7,0,11.5c1,13.3,14.6,23.5,27.7,20.8c5.9-1.2,10.9-4,15.6-7.6c9.9-7.5,17.7-17.1,25.1-27
		c0.7-0.9,1.5-1.8,2.6-3c-0.3,4.7-0.9,8.7-0.6,12.7c1.1,17.3,13.6,24.1,28.5,15.3c4.3-2.5,8-6,12.1-9.1c0.4,0.8,0.8,1.8,1.3,2.8
		c2.4,4.9,5.5,6,10.1,3.2c2.4-1.4,4.8-3.2,6.6-5.3c5-5.6,9.6-11.5,14.4-17.2c1.1-1.3,2-2.7,3.1-4c0.7,2.1,0.5,3.8,0.8,5.4
		c0.7,3.9,1.2,7.9,2.6,11.6c2.7,7,8.5,9.6,15.4,6.5c4-1.8,8.1-4.3,11.1-7.5c6.2-6.7,11.6-14.1,17.3-21.2c1.8-2.3,3.5-4.6,5.6-7.5
		c0.4,1.4,0.6,1.8,0.6,2.3c0.4,17,21.1,27.3,35.1,19c5.5-3.3,11-7,15.7-11.4c13.3-12.6,23.4-27.7,32.4-43.5c1.7-2.9,2.6-6.2,3.9-9.3
		C777.5,594.7,773,601.8,768.2,608.8z M527.4,621.4c1.3-2.2,3.2-4.4,5.2-5.9c4.1-3,9.5-0.9,10.4,4.1c0.5,2.6,0.5,5.8-0.5,8.3
		c-4.8,13-13.8,22.4-26.2,28.6C518.5,644.1,521.2,632.2,527.4,621.4z M612.7,628.3c-1.3,7.7-2.6,15.4-3.8,23.1
		c-1.1,7.2-11.2,14.7-18.4,13.6c-3.3-0.5-5.3-2.7-6.5-5.6c-1.9-4.4-1.9-9.1-1.1-13.7c2.3-13.4,8.1-24.9,18.2-34.1
		c4-3.6,8.4-6.6,15-5.3C614.9,614,613.8,621.2,612.7,628.3z M718,618.8c2.5-7.7,5-15.5,8-23c1.1-2.8,3.3-5.5,5.5-7.6
		c4.5-4.1,10.7-1.8,11.5,4.3c0.3,2.1,0.3,4.4-0.4,6.4c-4.6,13.5-13.8,23.1-27.1,30.5C716.6,625.2,717,621.9,718,618.8z"/>
	<path id="XMLID_29_" d="M677.9,459c-0.8-7.8-6-12.1-13.8-12.4c-5.3-0.2-10.2,1.3-15,3.3c-1.6,0.7-3.2,1.2-5.6,2.2
		c1.6-8.3,3.1-15.8,4.4-22.4c6-3.6,11.5-6.4,16.4-10.1c9.1-6.9,12.7-16.4,11.5-27.7c-1.2-11-10.1-15.2-19.5-9.2
		c-4.7,3-8.6,7-11.4,11.8c-4.3,7.4-8.3,15.1-12.6,23.2c-10.5-2-21.6-4.2-33.2-6.5c1.4-3.1,2.6-5.6,3.6-8.2
		c4.3-10.2,7.6-20.6,7.7-31.8c0.1-14.3-5.7-25.4-17.6-33.3c-0.7-0.5-1.6-0.7-2.8-1.2c0.2,24.1-7.2,45.8-16.3,67.5
		c-1.4-0.5-2.5-1-3.5-1.3c-6.3-2.1-12.5-4.7-18.9-6.2c-17.8-4.3-35.6-4.6-53,2.4c-8.9,3.5-16.5,8.7-21.9,16.8
		c-7.3,11-5.8,23.1,4.1,31.9c4.8,4.3,10.5,7,16.4,9.3c16.5,6.2,33.2,8.5,50.3,3.1c14.2-4.5,25.7-13.1,35.6-24
		c4.7-5.1,8.9-10.7,13.5-16.2c11.4,2.9,22.8,5.8,34.4,8.7c-6.5,32.9-12.8,65.3-19.3,98.3c6.4-0.9,11.9-1.7,17.6-2.5
		c4.2-21.5,8.4-42.5,12.5-63.1c4.4-3.7,8.3-5.6,11.8-6c5.5-0.6,8.7,2.5,8.1,8c-0.2,2.1-0.8,4.3-1.2,6.4c-2.4,12.2-4.9,24.5-7.2,36.7
		c-1.2,6,0.7,10.3,5.3,12.7c4-0.8,8.2-1.6,11.8-2.3c0-3.7-0.5-6.9,0.1-9.9c2.2-12.1,4.8-24.1,7-36.3
		C678.1,466.7,678.3,462.8,677.9,459z M666.2,390.2c3.7,1.4,4.3,4.4,4.5,7.4c0.5,6.5-1.9,12-6.3,16.7c-3.8,4.1-8.5,6.6-14.1,7.5
		C651,411.6,660.1,393.4,666.2,390.2z M543.5,442.5c-10.3,6.2-21.4,7.2-32.7,4c-5.7-1.6-11.3-4-16.6-6.7
		c-8.8-4.6-10.3-12.5-4.1-20.3c3.7-4.7,8.5-7.9,13.8-10.4c20.2-9.7,45.4-8,64.9,4.7C562.3,425.4,554.8,435.6,543.5,442.5z"/>
	<path id="XMLID_15_" d="M729.5,749.5c26.1-24.9,51.8-49.5,77.5-74.1c0.5-0.4,0.7-1.1,1-1.7c0.1-0.1,0-0.3,0-0.5
		c0-0.2-0.1-0.3-0.1-0.7c-2.3-2.4-5.6-2.6-8.7-2.5c-12.3,0.3-24.7,0.1-36.9,1.5c-24,2.7-47.9,5.9-71.8,9.5
		c-36.5,5.5-72.8,12.6-108.7,21.6c-17,4.2-33.8,8.8-50,15.6c-2.2,0.9-4.4,2.1-6.5,3.2c1.9,0.6,3.5,0.7,5.1,0.6
		c11.1-0.8,22.3-1.7,33.4-2.3c31-1.8,61.9-2.1,92.8,2.3C682.9,725.6,708,732.1,729.5,749.5z"/>
	<path id="XMLID_22_" d="M657.8,541.5c-8.8,4-17.4,8.4-26.3,12.1c-18.1,7.4-36.8,11.6-56.5,10.3c-9-0.6-17.7-2.2-26.6-5.8
		c4.7-6.6,9.2-12.8,13.5-18.9c2.7-0.1,5-0.2,7.3-0.3c15-1.1,23.8-9.9,24.9-24.9c0.3-4.8,0.2-9.6,0.2-14.5c0-7.2-0.5-14.3-0.1-21.5
		c0.4-7.8,3.4-14.3,11.8-16.6c0.2,0,0.2-0.5,0.4-1.3c-2-0.2-4-0.4-5.9-0.5c-7.3-0.5-12.7,2.6-15.9,9c-1.6,3.3-3.2,6.8-3.6,10.3
		c-0.9,8.5-4.7,15.5-9.4,22.2c-3.2,4.7-6.2,9.5-9.5,14.1c-2.9,4.1-5.9,8.1-9,11.9c-1.3,1.5-3.2,2.5-5.3,4.1c-1.7-4-1.1-7.3-0.6-10.5
		c2.7-16.9,5.5-33.8,8.3-50.8c0.2-1.3,0.2-2.5,0.4-4.4c-5.1,1.3-9.7,2.4-14.2,3.6c-0.5,2.1-0.9,3.8-1.5,5.8
		c-5.6-3.5-11.2-3.8-16.6-1.4c-3.6,1.6-7.2,3.6-10.3,6c-11.2,9-18,20.8-21.6,34.5c-1.7,6.4-2.3,12.8-0.8,19.3
		c2.6,11.5,11.7,16.7,22.6,12.3c4.5-1.8,8.5-5,12.7-7.8c1.6-1,2.9-2.6,4.5-4.1c0.4,0.9,0.7,1.5,1,2.1c2.7,6.4,6.3,7.6,12,3.5
		c3.1-2.2,6.1-4.8,8.4-7.8c7.8-10.1,15.4-20.5,23-30.8c0.7-1,1.5-1.9,2.3-2.8c0.3,0.1,0.7,0.3,1,0.4c-1.4,7.5-2.4,15.1-4.2,22.5
		c-2,8.4-6.7,14.5-16.2,15c-5.5,6.9-10.8,13.7-16.2,20.4c-4.6-0.7-9-1.2-13.2-2.1c-12.4-2.6-24.8-3.1-37.2-0.5
		c-7.4,1.6-14.5,4-20.1,9.3c-6.3,5.9-8.3,13.3-5.7,21.5c2.5,8,7.5,13.6,16.3,14.9c10.4,1.5,20.2,0,29.5-4.9
		c9.1-4.8,16.7-11.5,23.6-19.1c2.3-2.6,4.6-5.2,6.7-7.6c0.6,0.1,0.8,0.1,0.9,0.1c2.1,1.3,4.2,2.7,6.3,4.1
		c13.5,8.5,27.6,15.5,43.5,18.3c16.6,2.9,32.3,0.7,46-9.7c10.9-8.2,17.7-19.3,21.6-32.3c0.9-2.8,1.4-5.6,2.2-9.2
		C660.1,540.4,658.9,541,657.8,541.5z M538.1,490.2c-1.8,11-3.6,22-5.3,33c-0.4,2.4-1.2,4.5-3.3,5.9c-2.8,2-5.5,4.3-8.7,5.8
		c-6.5,3-12.2,0.1-13.6-6.9c-0.7-3.3-0.8-7-0.4-10.4c1.6-13.3,7.5-24.7,17.1-34.1c2.3-2.3,5.3-4,8.2-5.6c2.3-1.3,5-1.7,8-0.5
		C539.4,481.8,538.8,486,538.1,490.2z M493.7,584.8c-2.9,0.3-6-0.3-8.9-0.9c-4.2-0.8-6.7-3.7-7.5-7.8c-0.7-3.6,1.1-6.7,4-8.6
		c3.2-2.1,6.5-4.2,10.1-5.3c12.5-3.7,24.9-3.3,37.3,1c0.4,0.2,0.8,0.5,1.6,1.1C520,575.1,508.7,583.3,493.7,584.8z"/>
	<path id="XMLID_19_" d="M468.3,489c-3.8-18.5-14.6-31.6-32.3-38.3c-21.9-8.3-50-0.2-64.6,18.2c-9.2,11.6-11.5,24.5-6.4,38.5
		c0.3,0.9,0.9,1.7,2,3.6c0-2.6-0.1-3.9,0-5.2c0.1-1.5,0.2-3,0.5-4.5c4.3-20.3,16.2-34.3,35-42.6c7.5-3.3,15.5-4.2,23.4-2
		c14.3,4,22,14.7,25.7,28.2c2.6,9.5,2.8,19.4,1.4,29.3c-2.4,16.8-11.4,28.1-28.1,32.7c-6.4,1.8-12.9,2.8-19.9,2
		c3.7-24.4,8-48.4,11.5-72.8c-5.7,0.6-9.9,2.8-12.3,7c-2.5,4.3-4.7,8.8-6.1,13.5c-4.2,14.1-5.1,28.8-6.1,43.4
		c-0.1,1.9-0.4,3.8-0.5,5.5c-5.8-2.1-11-4.6-16.4-5.9c-16.7-4.2-31,5.3-33.3,21.8c-1,7.2,1.2,13.1,6.8,17.7
		c5.3,4.4,11.4,6.1,18.2,5.5c11.2-1.1,19.7-6.7,26-15.7c1.9-2.7,3.3-5.7,5-8.6c0.5,0,1-0.1,1.5-0.1c0.8,0,1.7,0.1,2.5,0.2
		c9.9,1.7,19.7,0.7,29.1-2.3c18.8-5.9,31.6-18,36.9-37.3C470.5,510.2,470.5,499.5,468.3,489z M369.8,571.6c-10.5,4.8-17.6,0-17-11.6
		c0.4-8.2,5.2-12.8,13.5-12.8c8.8,0,16.4,3.6,23.9,9.2C383.8,562.7,377.5,568.1,369.8,571.6z"/>
</g>
</svg>
